<svg xmlns="http://www.w3.org/2000/svg">
  <symbol id="icon-document" viewBox="0 -960 960 960" fill="#fb933d">
    <path d="M180-180v-600 530-88 158Zm0 60q-24 0-42-18t-18-42v-600q0-24 18-42t42-18h600q24 0 42 18t18 42v390h-60v-390H180v600h340v60H180Zm522 40L572-210l42-43 88 88 175-175 43 42L702-80ZM300-450q12 0 21-9t9-21q0-12-9-21t-21-9q-12 0-21 9t-9 21q0 12 9 21t21 9Zm0-164q12 0 21-9t9-21q0-12-9-21t-21-9q-12 0-21 9t-9 21q0 12 9 21t21 9Zm132 164h244v-60H432v60Zm0-164h244v-60H432v60Z"/>
  </symbol>
  <symbol id="icon-warning" viewBox="0 -960 960 960" fill="#fb933d">
    <path d="M479.98-280q14.02 0 23.52-9.48t9.5-23.5q0-14.02-9.48-23.52t-23.5-9.5q-14.02 0-23.52 9.48t-9.5 23.5q0 14.02 9.48 23.52t23.5 9.5ZM453-433h60v-253h-60v253Zm27.27 353q-82.74 0-155.5-31.5Q252-143 197.5-197.5t-86-127.34Q80-397.68 80-480.5t31.5-155.66Q143-709 197.5-763t127.34-85.5Q397.68-880 480.5-880t155.66 31.5Q709-817 763-763t85.5 127Q880-563 880-480.27q0 82.74-31.5 155.5Q817-252 763-197.68q-54 54.31-127 86Q563-80 480.27-80Zm.23-60Q622-140 721-239.5t99-241Q820-622 721.19-721T480-820q-141 0-240.5 98.81T140-480q0 141 99.5 240.5t241 99.5Zm-.5-340Z"/>
  </symbol>
</svg>